<svg width="435" height="50" viewBox="0 0 435 50" fill="none" xmlns="http://www.w3.org/2000/svg">
<path d="M49.967 12.1931L57.743 32.2251C58.0417 32.9931 58.3724 33.5264 58.735 33.8251C59.119 34.1024 59.4604 34.2517 59.759 34.2731V34.9131C59.119 34.8704 58.3617 34.8491 57.487 34.8491C56.6337 34.8277 55.7697 34.8171 54.895 34.8171C53.9137 34.8171 52.9857 34.8277 52.111 34.8491C51.2364 34.8491 50.543 34.8704 50.031 34.9131V34.2731C51.119 34.2304 51.8017 34.0491 52.079 33.7291C52.3777 33.3877 52.3137 32.6731 51.887 31.5851L46.447 16.7051L47.023 15.8731L42.159 28.5451C41.6897 29.7184 41.4017 30.6784 41.295 31.4251C41.2097 32.1717 41.263 32.7477 41.455 33.1531C41.6684 33.5584 41.999 33.8464 42.447 34.0171C42.9164 34.1664 43.471 34.2517 44.111 34.2731V34.9131C43.407 34.8704 42.735 34.8491 42.095 34.8491C41.455 34.8277 40.8044 34.8171 40.143 34.8171C39.6737 34.8171 39.2257 34.8277 38.799 34.8491C38.3937 34.8491 38.031 34.8704 37.711 34.9131V34.2731C38.159 34.1877 38.6177 33.8997 39.087 33.4091C39.5564 32.9184 40.015 32.0864 40.463 30.9131L47.759 12.1931C48.1004 12.2144 48.463 12.2251 48.847 12.2251C49.2524 12.2251 49.6257 12.2144 49.967 12.1931ZM52.207 25.6971V26.3371H42.671L42.991 25.6971H52.207ZM66.7988 13.1211V18.3691H70.5748V19.0091H66.7988V31.9371C66.7988 32.5771 66.9161 33.0357 67.1508 33.3131C67.3855 33.5691 67.7375 33.6971 68.2068 33.6971C68.5908 33.6971 68.9748 33.5584 69.3588 33.2811C69.7428 32.9824 70.0841 32.4811 70.3828 31.7771L70.9268 32.0651C70.5855 33.0251 70.0628 33.8144 69.3588 34.4331C68.6761 35.0517 67.7375 35.3611 66.5428 35.3611C65.8388 35.3611 65.2201 35.2651 64.6868 35.0731C64.1535 34.9024 63.7055 34.6357 63.3428 34.2731C62.8735 33.8037 62.5641 33.2277 62.4148 32.5451C62.2655 31.8411 62.1908 30.9344 62.1908 29.8251V19.0091H59.5028V18.3691H62.1908V14.1451C63.0868 14.1451 63.9081 14.0704 64.6548 13.9211C65.4228 13.7504 66.1375 13.4837 66.7988 13.1211ZM79.6838 17.9211C81.5611 17.9211 83.0331 18.4757 84.0998 19.5851C85.1665 20.6944 85.6998 22.5077 85.6998 25.0251H75.1718L75.1078 24.4171H81.6678C81.6891 23.3717 81.6251 22.4117 81.4758 21.5371C81.3265 20.6411 81.0918 19.9264 80.7718 19.3931C80.4518 18.8597 80.0251 18.5931 79.4918 18.5931C78.7451 18.5931 78.1051 19.0624 77.5718 20.0011C77.0598 20.9397 76.7505 22.4971 76.6438 24.6731L76.7398 24.8651C76.7185 25.1211 76.6971 25.3877 76.6758 25.6651C76.6758 25.9424 76.6758 26.2304 76.6758 26.5291C76.6758 28.0011 76.8785 29.1957 77.2838 30.1131C77.7105 31.0304 78.2438 31.7024 78.8838 32.1291C79.5238 32.5344 80.1745 32.7371 80.8358 32.7371C81.2838 32.7371 81.7425 32.6731 82.2118 32.5451C82.7025 32.3957 83.1931 32.1397 83.6838 31.7771C84.1745 31.3931 84.6331 30.8597 85.0598 30.1771L85.6358 30.3691C85.3798 31.1797 84.9745 31.9691 84.4198 32.7371C83.8651 33.5051 83.1611 34.1344 82.3078 34.6251C81.4545 35.1157 80.4305 35.3611 79.2358 35.3611C77.7851 35.3611 76.5051 35.0517 75.3958 34.4331C74.2865 33.8144 73.4118 32.8757 72.7718 31.6171C72.1531 30.3584 71.8438 28.7584 71.8438 26.8171C71.8438 24.8331 72.1745 23.1797 72.8358 21.8571C73.5185 20.5344 74.4465 19.5531 75.6198 18.9131C76.8145 18.2517 78.1691 17.9211 79.6838 17.9211ZM94.0808 9.85705V31.9371C94.0808 32.8331 94.2301 33.4411 94.5288 33.7611C94.8488 34.0811 95.3821 34.2411 96.1288 34.2411V34.9131C95.7235 34.8917 95.1155 34.8704 94.3048 34.8491C93.4941 34.8064 92.6728 34.7851 91.8408 34.7851C91.0088 34.7851 90.1661 34.8064 89.3128 34.8491C88.4808 34.8704 87.8515 34.8917 87.4248 34.9131V34.2411C88.1715 34.2411 88.6941 34.0811 88.9928 33.7611C89.3128 33.4411 89.4728 32.8331 89.4728 31.9371V13.6971C89.4728 12.7371 89.3235 12.0331 89.0248 11.5851C88.7475 11.1157 88.2141 10.8811 87.4248 10.8811V10.2091C88.1075 10.2731 88.7688 10.3051 89.4088 10.3051C90.2835 10.3051 91.1155 10.2731 91.9048 10.2091C92.6941 10.1237 93.4195 10.0064 94.0808 9.85705ZM101.65 10.1131C102.546 10.1131 103.25 10.3371 103.762 10.7851C104.296 11.2117 104.562 11.8091 104.562 12.5771C104.562 13.3451 104.296 13.9531 103.762 14.4011C103.25 14.8277 102.546 15.0411 101.65 15.0411C100.754 15.0411 100.04 14.8277 99.5063 14.4011C98.9943 13.9531 98.7383 13.3451 98.7383 12.5771C98.7383 11.8091 98.9943 11.2117 99.5063 10.7851C100.04 10.3371 100.754 10.1131 101.65 10.1131ZM104.146 18.0171V31.9371C104.146 32.8331 104.296 33.4411 104.594 33.7611C104.914 34.0811 105.448 34.2411 106.194 34.2411V34.9131C105.81 34.8917 105.213 34.8704 104.402 34.8491C103.592 34.8064 102.77 34.7851 101.938 34.7851C101.106 34.7851 100.264 34.8064 99.4103 34.8491C98.557 34.8704 97.917 34.8917 97.4903 34.9131V34.2411C98.237 34.2411 98.7596 34.0811 99.0583 33.7611C99.3783 33.4411 99.5383 32.8331 99.5383 31.9371V21.8571C99.5383 20.8971 99.389 20.1931 99.0903 19.7451C98.813 19.2757 98.2796 19.0411 97.4903 19.0411V18.3691C98.173 18.4331 98.8343 18.4651 99.4743 18.4651C100.37 18.4651 101.202 18.4331 101.97 18.3691C102.76 18.2837 103.485 18.1664 104.146 18.0171ZM115.84 17.9211C117.717 17.9211 119.189 18.4757 120.256 19.5851C121.323 20.6944 121.856 22.5077 121.856 25.0251H111.328L111.264 24.4171H117.824C117.845 23.3717 117.781 22.4117 117.632 21.5371C117.483 20.6411 117.248 19.9264 116.928 19.3931C116.608 18.8597 116.181 18.5931 115.648 18.5931C114.901 18.5931 114.261 19.0624 113.728 20.0011C113.216 20.9397 112.907 22.4971 112.8 24.6731L112.896 24.8651C112.875 25.1211 112.853 25.3877 112.832 25.6651C112.832 25.9424 112.832 26.2304 112.832 26.5291C112.832 28.0011 113.035 29.1957 113.44 30.1131C113.867 31.0304 114.4 31.7024 115.04 32.1291C115.68 32.5344 116.331 32.7371 116.992 32.7371C117.44 32.7371 117.899 32.6731 118.368 32.5451C118.859 32.3957 119.349 32.1397 119.84 31.7771C120.331 31.3931 120.789 30.8597 121.216 30.1771L121.792 30.3691C121.536 31.1797 121.131 31.9691 120.576 32.7371C120.021 33.5051 119.317 34.1344 118.464 34.6251C117.611 35.1157 116.587 35.3611 115.392 35.3611C113.941 35.3611 112.661 35.0517 111.552 34.4331C110.443 33.8144 109.568 32.8757 108.928 31.6171C108.309 30.3584 108 28.7584 108 26.8171C108 24.8331 108.331 23.1797 108.992 21.8571C109.675 20.5344 110.603 19.5531 111.776 18.9131C112.971 18.2517 114.325 17.9211 115.84 17.9211ZM134.53 17.9211C135.212 17.9211 135.767 18.0704 136.194 18.3691C136.62 18.6464 136.93 19.0091 137.122 19.4571C137.335 19.9051 137.442 20.3744 137.442 20.8651C137.442 21.6544 137.207 22.3051 136.738 22.8171C136.29 23.3077 135.692 23.5531 134.946 23.5531C134.199 23.5531 133.612 23.3717 133.186 23.0091C132.78 22.6251 132.578 22.1237 132.578 21.5051C132.578 20.9077 132.706 20.4171 132.962 20.0331C133.239 19.6277 133.58 19.2864 133.986 19.0091C133.687 18.9237 133.388 18.9344 133.09 19.0411C132.684 19.1051 132.3 19.2757 131.938 19.5531C131.575 19.8091 131.266 20.1397 131.01 20.5451C130.754 20.9291 130.551 21.3557 130.402 21.8251C130.252 22.2731 130.178 22.7104 130.178 23.1371V31.6171C130.178 32.6411 130.423 33.3344 130.914 33.6971C131.426 34.0597 132.183 34.2411 133.186 34.2411V34.9131C132.695 34.8917 131.98 34.8704 131.042 34.8491C130.103 34.8064 129.122 34.7851 128.098 34.7851C127.244 34.7851 126.38 34.8064 125.506 34.8491C124.631 34.8704 123.97 34.8917 123.522 34.9131V34.2411C124.268 34.2411 124.791 34.0811 125.09 33.7611C125.41 33.4411 125.57 32.8331 125.57 31.9371V21.8571C125.57 20.8971 125.42 20.1931 125.122 19.7451C124.844 19.2757 124.311 19.0411 123.522 19.0411V18.3691C124.204 18.4331 124.866 18.4651 125.506 18.4651C126.402 18.4651 127.234 18.4331 128.002 18.3691C128.791 18.2837 129.516 18.1664 130.178 18.0171V20.9931C130.434 20.4171 130.775 19.8944 131.202 19.4251C131.628 18.9557 132.119 18.5931 132.674 18.3371C133.228 18.0597 133.847 17.9211 134.53 17.9211ZM164.95 12.2571V12.8971C164.48 13.0677 163.979 13.4411 163.446 14.0171C162.934 14.5931 162.454 15.4891 162.006 16.7051L155.254 34.9771C155.083 34.9557 154.902 34.9451 154.71 34.9451C154.518 34.9451 154.326 34.9451 154.134 34.9451C153.963 34.9451 153.782 34.9451 153.59 34.9451C153.398 34.9451 153.216 34.9557 153.046 34.9771L144.886 14.9451C144.587 14.1771 144.256 13.6544 143.894 13.3771C143.531 13.0784 143.19 12.9184 142.87 12.8971V12.2571C143.51 12.2784 144.256 12.2997 145.11 12.3211C145.984 12.3424 146.859 12.3531 147.734 12.3531C148.715 12.3531 149.632 12.3424 150.486 12.3211C151.36 12.2997 152.064 12.2784 152.598 12.2571V12.8971C151.915 12.9184 151.382 13.0037 150.998 13.1531C150.614 13.2811 150.4 13.5371 150.358 13.9211C150.315 14.2837 150.443 14.8384 150.742 15.5851L156.566 30.4011L155.894 31.2011L160.31 19.2971C160.886 17.6971 161.184 16.4384 161.206 15.5211C161.227 14.6037 161.003 13.9424 160.534 13.5371C160.064 13.1317 159.392 12.9184 158.518 12.8971V12.2571C159.243 12.2784 159.926 12.2997 160.566 12.3211C161.206 12.3424 161.856 12.3531 162.518 12.3531C162.987 12.3531 163.424 12.3424 163.83 12.3211C164.256 12.2997 164.63 12.2784 164.95 12.2571ZM171.559 17.9211C173.436 17.9211 174.908 18.4757 175.975 19.5851C177.041 20.6944 177.575 22.5077 177.575 25.0251H167.047L166.983 24.4171H173.543C173.564 23.3717 173.5 22.4117 173.351 21.5371C173.201 20.6411 172.967 19.9264 172.647 19.3931C172.327 18.8597 171.9 18.5931 171.367 18.5931C170.62 18.5931 169.98 19.0624 169.447 20.0011C168.935 20.9397 168.625 22.4971 168.519 24.6731L168.615 24.8651C168.593 25.1211 168.572 25.3877 168.551 25.6651C168.551 25.9424 168.551 26.2304 168.551 26.5291C168.551 28.0011 168.753 29.1957 169.159 30.1131C169.585 31.0304 170.119 31.7024 170.759 32.1291C171.399 32.5344 172.049 32.7371 172.711 32.7371C173.159 32.7371 173.617 32.6731 174.087 32.5451C174.577 32.3957 175.068 32.1397 175.559 31.7771C176.049 31.3931 176.508 30.8597 176.935 30.1771L177.511 30.3691C177.255 31.1797 176.849 31.9691 176.295 32.7371C175.74 33.5051 175.036 34.1344 174.183 34.6251C173.329 35.1157 172.305 35.3611 171.111 35.3611C169.66 35.3611 168.38 35.0517 167.271 34.4331C166.161 33.8144 165.287 32.8757 164.647 31.6171C164.028 30.3584 163.719 28.7584 163.719 26.8171C163.719 24.8331 164.049 23.1797 164.711 21.8571C165.393 20.5344 166.321 19.5531 167.495 18.9131C168.689 18.2517 170.044 17.9211 171.559 17.9211ZM174.855 8.76905C175.217 9.04639 175.409 9.43039 175.431 9.92105C175.452 10.4117 175.292 10.8704 174.951 11.2971C174.609 11.7237 174.193 12.1077 173.703 12.4491C173.212 12.7904 172.625 13.2064 171.943 13.6971C171.281 14.1877 170.481 14.8704 169.543 15.7451L169.191 15.4571C169.831 14.3051 170.3 13.3451 170.599 12.5771C170.897 11.7877 171.153 11.1157 171.367 10.5611C171.58 10.0064 171.868 9.52639 172.231 9.12105C172.551 8.69439 172.967 8.44905 173.479 8.38505C174.012 8.29972 174.471 8.42772 174.855 8.76905ZM185.956 9.85705V31.9371C185.956 32.8331 186.105 33.4411 186.404 33.7611C186.724 34.0811 187.257 34.2411 188.004 34.2411V34.9131C187.598 34.8917 186.99 34.8704 186.18 34.8491C185.369 34.8064 184.548 34.7851 183.716 34.7851C182.884 34.7851 182.041 34.8064 181.188 34.8491C180.356 34.8704 179.726 34.8917 179.3 34.9131V34.2411C180.046 34.2411 180.569 34.0811 180.868 33.7611C181.188 33.4411 181.348 32.8331 181.348 31.9371V13.6971C181.348 12.7371 181.198 12.0331 180.9 11.5851C180.622 11.1157 180.089 10.8811 179.3 10.8811V10.2091C179.982 10.2731 180.644 10.3051 181.284 10.3051C182.158 10.3051 182.99 10.2731 183.78 10.2091C184.569 10.1237 185.294 10.0064 185.956 9.85705ZM197.309 17.9211C198.866 17.9211 200.231 18.2091 201.405 18.7851C202.578 19.3611 203.495 20.2891 204.157 21.5691C204.818 22.8491 205.149 24.5451 205.149 26.6571C205.149 28.7691 204.818 30.4651 204.157 31.7451C203.495 33.0037 202.578 33.9211 201.405 34.4971C200.231 35.0731 198.866 35.3611 197.309 35.3611C195.794 35.3611 194.439 35.0731 193.245 34.4971C192.071 33.9211 191.143 33.0037 190.461 31.7451C189.799 30.4651 189.469 28.7691 189.469 26.6571C189.469 24.5451 189.799 22.8491 190.461 21.5691C191.143 20.2891 192.071 19.3611 193.245 18.7851C194.439 18.2091 195.794 17.9211 197.309 17.9211ZM197.309 18.5611C196.455 18.5611 195.741 19.2011 195.165 20.4811C194.589 21.7397 194.301 23.7984 194.301 26.6571C194.301 29.5157 194.589 31.5744 195.165 32.8331C195.741 34.0917 196.455 34.7211 197.309 34.7211C198.183 34.7211 198.898 34.0917 199.453 32.8331C200.029 31.5744 200.317 29.5157 200.317 26.6571C200.317 23.7984 200.029 21.7397 199.453 20.4811C198.898 19.2011 198.183 18.5611 197.309 18.5611ZM222.103 22.3851V33.1531C222.103 33.6331 222.178 33.9904 222.327 34.2251C222.477 34.4491 222.743 34.5611 223.127 34.5611V34.8971C222.797 34.8651 222.466 34.8491 222.135 34.8491C221.687 34.8491 221.266 34.8651 220.871 34.8971C220.487 34.9291 220.13 34.9877 219.799 35.0731V24.3051C219.799 23.8251 219.725 23.4731 219.575 23.2491C219.437 23.0144 219.17 22.8971 218.775 22.8971V22.5611C219.117 22.5931 219.447 22.6091 219.767 22.6091C220.205 22.6091 220.621 22.5931 221.015 22.5611C221.41 22.5184 221.773 22.4597 222.103 22.3851ZM218.023 26.4171C218.493 26.4171 218.903 26.4971 219.255 26.6571C219.618 26.8064 219.901 27.0624 220.103 27.4251L219.911 27.6011C219.773 27.3451 219.586 27.1637 219.351 27.0571C219.127 26.9397 218.887 26.8811 218.631 26.8811C218.087 26.8811 217.655 27.2011 217.335 27.8411C217.015 28.4704 216.861 29.4464 216.871 30.7691C216.871 31.6757 216.93 32.4011 217.047 32.9451C217.175 33.4784 217.351 33.8624 217.575 34.0971C217.81 34.3317 218.077 34.4491 218.375 34.4491C218.738 34.4491 219.063 34.3051 219.351 34.0171C219.639 33.7291 219.794 33.3397 219.815 32.8491L219.895 33.4091C219.735 33.9744 219.474 34.4064 219.111 34.7051C218.759 34.9931 218.295 35.1371 217.719 35.1371C217.09 35.1371 216.525 34.9824 216.023 34.6731C215.533 34.3637 215.149 33.8891 214.871 33.2491C214.594 32.5984 214.455 31.7611 214.455 30.7371C214.455 29.7664 214.61 28.9664 214.919 28.3371C215.229 27.6971 215.65 27.2171 216.183 26.8971C216.727 26.5771 217.341 26.4171 218.023 26.4171ZM231.762 26.4651V33.1691C231.762 33.6491 231.836 34.0064 231.986 34.2411C232.135 34.4651 232.402 34.5771 232.786 34.5771V34.9131C232.455 34.8811 232.124 34.8651 231.794 34.8651C231.346 34.8651 230.93 34.8811 230.546 34.9131C230.162 34.9451 229.799 35.0037 229.458 35.0891V33.6491C229.202 34.1824 228.844 34.5664 228.386 34.8011C227.938 35.0251 227.436 35.1371 226.882 35.1371C226.434 35.1371 226.071 35.0784 225.794 34.9611C225.516 34.8437 225.298 34.6944 225.138 34.5131C224.956 34.3104 224.828 34.0437 224.754 33.7131C224.679 33.3824 224.642 32.9557 224.642 32.4331V28.3851C224.642 27.9051 224.567 27.5531 224.418 27.3291C224.279 27.0944 224.012 26.9771 223.618 26.9771V26.6411C223.959 26.6731 224.29 26.6891 224.61 26.6891C225.058 26.6891 225.474 26.6731 225.858 26.6411C226.252 26.5984 226.615 26.5397 226.946 26.4651V33.0891C226.946 33.3557 226.967 33.5904 227.01 33.7931C227.063 33.9957 227.159 34.1557 227.298 34.2731C227.436 34.3797 227.639 34.4331 227.906 34.4331C228.194 34.4331 228.45 34.3531 228.674 34.1931C228.908 34.0331 229.095 33.8144 229.234 33.5371C229.383 33.2491 229.458 32.9291 229.458 32.5771V28.3851C229.458 27.9051 229.383 27.5531 229.234 27.3291C229.095 27.0944 228.828 26.9771 228.434 26.9771V26.6411C228.775 26.6731 229.106 26.6891 229.426 26.6891C229.874 26.6891 230.29 26.6731 230.674 26.6411C231.068 26.5984 231.431 26.5397 231.762 26.4651ZM261.059 12.2571V12.8971C260.59 13.0677 260.088 13.4411 259.555 14.0171C259.043 14.5931 258.563 15.4891 258.115 16.7051L251.363 34.9771C251.192 34.9557 251.011 34.9451 250.819 34.9451C250.627 34.9451 250.435 34.9451 250.243 34.9451C250.072 34.9451 249.891 34.9451 249.699 34.9451C249.507 34.9451 249.326 34.9557 249.155 34.9771L240.995 14.9451C240.696 14.1771 240.366 13.6544 240.003 13.3771C239.64 13.0784 239.299 12.9184 238.979 12.8971V12.2571C239.619 12.2784 240.366 12.2997 241.219 12.3211C242.094 12.3424 242.968 12.3531 243.843 12.3531C244.824 12.3531 245.742 12.3424 246.595 12.3211C247.47 12.2997 248.174 12.2784 248.707 12.2571V12.8971C248.024 12.9184 247.491 13.0037 247.107 13.1531C246.723 13.2811 246.51 13.5371 246.467 13.9211C246.424 14.2837 246.552 14.8384 246.851 15.5851L252.675 30.4011L252.003 31.2011L256.419 19.2971C256.995 17.6971 257.294 16.4384 257.315 15.5211C257.336 14.6037 257.112 13.9424 256.643 13.5371C256.174 13.1317 255.502 12.9184 254.627 12.8971V12.2571C255.352 12.2784 256.035 12.2997 256.675 12.3211C257.315 12.3424 257.966 12.3531 258.627 12.3531C259.096 12.3531 259.534 12.3424 259.939 12.3211C260.366 12.2997 260.739 12.2784 261.059 12.2571ZM267.668 17.9211C269.545 17.9211 271.017 18.4757 272.084 19.5851C273.151 20.6944 273.684 22.5077 273.684 25.0251H263.156L263.092 24.4171H269.652C269.673 23.3717 269.609 22.4117 269.46 21.5371C269.311 20.6411 269.076 19.9264 268.756 19.3931C268.436 18.8597 268.009 18.5931 267.476 18.5931C266.729 18.5931 266.089 19.0624 265.556 20.0011C265.044 20.9397 264.735 22.4971 264.628 24.6731L264.724 24.8651C264.703 25.1211 264.681 25.3877 264.66 25.6651C264.66 25.9424 264.66 26.2304 264.66 26.5291C264.66 28.0011 264.863 29.1957 265.268 30.1131C265.695 31.0304 266.228 31.7024 266.868 32.1291C267.508 32.5344 268.159 32.7371 268.82 32.7371C269.268 32.7371 269.727 32.6731 270.196 32.5451C270.687 32.3957 271.177 32.1397 271.668 31.7771C272.159 31.3931 272.617 30.8597 273.044 30.1771L273.62 30.3691C273.364 31.1797 272.959 31.9691 272.404 32.7371C271.849 33.5051 271.145 34.1344 270.292 34.6251C269.439 35.1157 268.415 35.3611 267.22 35.3611C265.769 35.3611 264.489 35.0517 263.38 34.4331C262.271 33.8144 261.396 32.8757 260.756 31.6171C260.137 30.3584 259.828 28.7584 259.828 26.8171C259.828 24.8331 260.159 23.1797 260.82 21.8571C261.503 20.5344 262.431 19.5531 263.604 18.9131C264.799 18.2517 266.153 17.9211 267.668 17.9211ZM286.358 17.9211C287.04 17.9211 287.595 18.0704 288.022 18.3691C288.448 18.6464 288.758 19.0091 288.95 19.4571C289.163 19.9051 289.27 20.3744 289.27 20.8651C289.27 21.6544 289.035 22.3051 288.566 22.8171C288.118 23.3077 287.52 23.5531 286.774 23.5531C286.027 23.5531 285.44 23.3717 285.014 23.0091C284.608 22.6251 284.406 22.1237 284.406 21.5051C284.406 20.9077 284.534 20.4171 284.79 20.0331C285.067 19.6277 285.408 19.2864 285.814 19.0091C285.515 18.9237 285.216 18.9344 284.918 19.0411C284.512 19.1051 284.128 19.2757 283.766 19.5531C283.403 19.8091 283.094 20.1397 282.838 20.5451C282.582 20.9291 282.379 21.3557 282.23 21.8251C282.08 22.2731 282.006 22.7104 282.006 23.1371V31.6171C282.006 32.6411 282.251 33.3344 282.742 33.6971C283.254 34.0597 284.011 34.2411 285.014 34.2411V34.9131C284.523 34.8917 283.808 34.8704 282.87 34.8491C281.931 34.8064 280.95 34.7851 279.926 34.7851C279.072 34.7851 278.208 34.8064 277.334 34.8491C276.459 34.8704 275.798 34.8917 275.35 34.9131V34.2411C276.096 34.2411 276.619 34.0811 276.918 33.7611C277.238 33.4411 277.398 32.8331 277.398 31.9371V21.8571C277.398 20.8971 277.248 20.1931 276.95 19.7451C276.672 19.2757 276.139 19.0411 275.35 19.0411V18.3691C276.032 18.4331 276.694 18.4651 277.334 18.4651C278.23 18.4651 279.062 18.4331 279.83 18.3691C280.619 18.2837 281.344 18.1664 282.006 18.0171V20.9931C282.262 20.4171 282.603 19.8944 283.03 19.4251C283.456 18.9557 283.947 18.5931 284.502 18.3371C285.056 18.0597 285.675 17.9211 286.358 17.9211ZM302.191 17.9211C303.087 17.9211 303.812 18.0384 304.367 18.2731C304.943 18.4864 305.391 18.7851 305.711 19.1691C306.052 19.5744 306.298 20.0971 306.447 20.7371C306.618 21.3771 306.703 22.2411 306.703 23.3291V31.9371C306.703 32.8331 306.852 33.4411 307.151 33.7611C307.471 34.0811 308.004 34.2411 308.751 34.2411V34.9131C308.346 34.8917 307.738 34.8704 306.927 34.8491C306.116 34.8064 305.316 34.7851 304.527 34.7851C303.716 34.7851 302.916 34.8064 302.127 34.8491C301.359 34.8704 300.772 34.8917 300.367 34.9131V34.2411C301.007 34.2411 301.455 34.0811 301.711 33.7611C301.967 33.4411 302.095 32.8331 302.095 31.9371V21.9851C302.095 21.4517 302.042 20.9931 301.935 20.6091C301.828 20.2037 301.636 19.8944 301.359 19.6811C301.082 19.4464 300.666 19.3291 300.111 19.3291C299.535 19.3291 299.002 19.4891 298.511 19.8091C298.042 20.1291 297.658 20.5771 297.359 21.1531C297.082 21.7077 296.943 22.3371 296.943 23.0411V31.9371C296.943 32.8331 297.071 33.4411 297.327 33.7611C297.604 34.0811 298.052 34.2411 298.671 34.2411V34.9131C298.287 34.8917 297.722 34.8704 296.975 34.8491C296.25 34.8064 295.492 34.7851 294.703 34.7851C293.892 34.7851 293.06 34.8064 292.207 34.8491C291.354 34.8704 290.714 34.8917 290.287 34.9131V34.2411C291.034 34.2411 291.556 34.0811 291.855 33.7611C292.175 33.4411 292.335 32.8331 292.335 31.9371V21.8571C292.335 20.8971 292.186 20.1931 291.887 19.7451C291.61 19.2757 291.076 19.0411 290.287 19.0411V18.3691C290.97 18.4331 291.631 18.4651 292.271 18.4651C293.167 18.4651 293.999 18.4331 294.767 18.3691C295.556 18.2837 296.282 18.1664 296.943 18.0171V20.8971C297.476 19.8091 298.202 19.0411 299.119 18.5931C300.036 18.1451 301.06 17.9211 302.191 17.9211ZM318.199 17.9211C320.077 17.9211 321.549 18.4757 322.615 19.5851C323.682 20.6944 324.215 22.5077 324.215 25.0251H313.687L313.623 24.4171H320.183C320.205 23.3717 320.141 22.4117 319.991 21.5371C319.842 20.6411 319.607 19.9264 319.287 19.3931C318.967 18.8597 318.541 18.5931 318.007 18.5931C317.261 18.5931 316.621 19.0624 316.087 20.0011C315.575 20.9397 315.266 22.4971 315.159 24.6731L315.255 24.8651C315.234 25.1211 315.213 25.3877 315.191 25.6651C315.191 25.9424 315.191 26.2304 315.191 26.5291C315.191 28.0011 315.394 29.1957 315.799 30.1131C316.226 31.0304 316.759 31.7024 317.399 32.1291C318.039 32.5344 318.69 32.7371 319.351 32.7371C319.799 32.7371 320.258 32.6731 320.727 32.5451C321.218 32.3957 321.709 32.1397 322.199 31.7771C322.69 31.3931 323.149 30.8597 323.575 30.1771L324.151 30.3691C323.895 31.1797 323.49 31.9691 322.935 32.7371C322.381 33.5051 321.677 34.1344 320.823 34.6251C319.97 35.1157 318.946 35.3611 317.751 35.3611C316.301 35.3611 315.021 35.0517 313.911 34.4331C312.802 33.8144 311.927 32.8757 311.287 31.6171C310.669 30.3584 310.359 28.7584 310.359 26.8171C310.359 24.8331 310.69 23.1797 311.351 21.8571C312.034 20.5344 312.962 19.5531 314.135 18.9131C315.33 18.2517 316.685 17.9211 318.199 17.9211ZM332.564 13.1211V18.3691H336.34V19.0091H332.564V31.9371C332.564 32.5771 332.682 33.0357 332.916 33.3131C333.151 33.5691 333.503 33.6971 333.972 33.6971C334.356 33.6971 334.74 33.5584 335.124 33.2811C335.508 32.9824 335.85 32.4811 336.148 31.7771L336.692 32.0651C336.351 33.0251 335.828 33.8144 335.124 34.4331C334.442 35.0517 333.503 35.3611 332.308 35.3611C331.604 35.3611 330.986 35.2651 330.452 35.0731C329.919 34.9024 329.471 34.6357 329.108 34.2731C328.639 33.8037 328.33 33.2277 328.18 32.5451C328.031 31.8411 327.956 30.9344 327.956 29.8251V19.0091H325.268V18.3691H327.956V14.1451C328.852 14.1451 329.674 14.0704 330.42 13.9211C331.188 13.7504 331.903 13.4837 332.564 13.1211Z" fill="white"/>
<line y1="-0.25" x2="1.096" y2="-0.25" transform="matrix(0.893399 -0.449264 0.445168 0.895447 21.9563 21.834)" stroke="white" stroke-width="0.5"/>
<line y1="-0.25" x2="3.68537" y2="-0.25" transform="matrix(0.597801 -0.801645 0.798347 0.602198 20.2427 22.0802)" stroke="white" stroke-width="0.5"/>
<line y1="-0.25" x2="8.98394" y2="-0.25" transform="matrix(0.163485 -0.986546 0.98624 0.165317 19.2635 22.3264)" stroke="white" stroke-width="0.5"/>
<line y1="-0.25" x2="20.4374" y2="-0.25" transform="matrix(0.155709 -0.987803 0.987526 0.157458 15.3469 45.4689)" stroke="white" stroke-width="0.5"/>
<line y1="-0.25" x2="10.4232" y2="-0.25" transform="matrix(-0.681069 -0.732219 0.728317 -0.685241 26.6073 34.8824)" stroke="white" stroke-width="0.5"/>
<line y1="-0.25" x2="22.6872" y2="-0.25" transform="matrix(-0.971084 -0.238739 0.236173 -0.971711 25.1385 29.2199)" stroke="white" stroke-width="0.5"/>
<line y1="-0.25" x2="19.2628" y2="-0.25" transform="matrix(0.609981 -0.792416 0.789023 0.614364 7.2688 39.0678)" stroke="white" stroke-width="0.5"/>
<line y1="-0.25" x2="18.9682" y2="-0.25" transform="matrix(0.593646 -0.804726 0.801461 0.598047 11.4302 43.2531)" stroke="white" stroke-width="0.5"/>
<line y1="-0.25" x2="20.2771" y2="-0.25" transform="matrix(0.181084 -0.983468 0.983094 0.1831 20.2427 46.946)" stroke="white" stroke-width="0.5"/>
<line y1="-0.25" x2="16.8323" y2="-0.25" transform="matrix(-0.930748 0.365661 -0.362046 -0.93216 19.0188 22.5726)" stroke="white" stroke-width="0.5"/>
<line y1="-0.25" x2="16.1542" y2="-0.25" transform="matrix(-0.969814 -0.243846 0.241232 -0.970468 19.9979 21.5878)" stroke="white" stroke-width="0.5"/>
<line y1="-0.25" x2="18.4059" y2="-0.25" transform="matrix(-0.691578 -0.722301 0.718333 -0.6957 18.774 26.5117)" stroke="white" stroke-width="0.5"/>
<line y1="-0.25" x2="18.2375" y2="-0.25" transform="matrix(-0.684543 -0.728972 0.725047 -0.688699 22.201 21.834)" stroke="white" stroke-width="0.5"/>
<line y1="-0.25" x2="19.7072" y2="-0.25" transform="matrix(-0.27327 -0.961937 0.961106 -0.276179 24.6489 46.4537)" stroke="white" stroke-width="0.5"/>
<line y1="-0.25" x2="19.7072" y2="-0.25" transform="matrix(-0.27327 -0.961937 0.961106 -0.276179 29.7896 45.4689)" stroke="white" stroke-width="0.5"/>
<line y1="-0.25" x2="19.9442" y2="-0.25" transform="matrix(-0.270024 -0.962854 0.962042 -0.272903 18.5292 24.7884)" stroke="white" stroke-width="0.5"/>
<path d="M18.3471 26.2479C17.7027 19.8364 22.2133 21.0386 23.3732 22.5079L24.4042 26.7822C22.4711 31.1901 18.6048 27.8508 18.3471 26.2479Z" fill="white" stroke="white" stroke-linecap="round"/>
<path d="M21.7115 29.7123C23.5366 29.7123 24.649 29.23 24.649 27.1904C24.8937 25.6858 23.9038 21.651 22.0786 21.651C20.2535 21.651 18.4068 23.7336 18.4068 25.7732C18.4068 27.8127 19.8863 29.7123 21.7115 29.7123Z" fill="white"/>
<line y1="-0.25" x2="19.7072" y2="-0.25" transform="matrix(-0.27327 -0.961937 0.961106 -0.276179 23.425 22.5726)" stroke="white" stroke-width="0.5"/>
<line y1="-0.5" x2="17.6059" y2="-0.5" transform="matrix(-0.931564 0.363578 -0.359978 -0.932961 21.4667 28.2351)" stroke="white"/>
<path d="M16.6932 3C10.5735 4.72337 -1.95982 13.6357 3.22974 33.5284C4.99599 40.2988 14.9308 52.7809 28.9328 46.0844" stroke="#4872B7" stroke-width="4" stroke-linecap="square"/>
</svg>
