<svg width="31" height="31" fill="none" xmlns="http://www.w3.org/2000/svg"><path d="M15.5 3.475C8.858 3.475 3.475 8.859 3.475 15.5S8.858 27.525 15.5 27.525c6.64 0 12.025-5.384 12.025-12.025S22.14 3.475 15.5 3.475Zm0 21.03a9.006 9.006 0 1 1 0-18.011 9.006 9.006 0 0 1 0 18.012Z" fill="#3F3F3F"/><path d="M15.5 12.591a2.909 2.909 0 1 0 0 5.818 2.909 2.909 0 0 0 0-5.818Zm0 4.2a1.291 1.291 0 1 1 0-2.582 1.291 1.291 0 0 1 0 2.583Z" fill="#3F3F3F"/><path d="M15.5 27.525c6.64 0 12.025-5.384 12.025-12.025S22.14 3.475 15.5 3.475C8.858 3.475 3.475 8.859 3.475 15.5S8.858 27.525 15.5 27.525Z" stroke="#000" stroke-width="2" stroke-miterlimit="10"/><path d="M15.5 24.67a9.17 9.17 0 1 0 0-18.34 9.17 9.17 0 0 0 0 18.34Z" stroke="#000" stroke-width="2" stroke-miterlimit="10"/><path d="m9.055 21.945 4.388-4.388m4.415 6.746-1.605-5.993m8.05-.451-5.994-1.606m3.635-7.198-4.388 4.388M13.14 6.697l1.607 5.994m-8.05.45 5.992 1.606" stroke="#000" stroke-width="2" stroke-miterlimit="10" stroke-linecap="round"/><path d="M15.5 18.409a2.909 2.909 0 1 0 0-5.818 2.909 2.909 0 0 0 0 5.818Z" stroke="#000" stroke-width="2" stroke-miterlimit="10"/><path d="M15.5 16.792a1.292 1.292 0 1 0 0-2.584 1.292 1.292 0 0 0 0 2.584Z" stroke="#000" stroke-width="2" stroke-miterlimit="10"/></svg>