<svg width="214" height="24" fill="none" xmlns="http://www.w3.org/2000/svg"><path transform="matrix(.90648 -.42225 .47289 .88112 11.054 10.79)" stroke="#fff" stroke-width=".5" d="M0-.25h.544"/><path transform="matrix(.62708 -.77895 .81972 .57276 10.19 10.904)" stroke="#fff" stroke-width=".5" d="M0-.25h1.77"/><path transform="matrix(.1761 -.98437 .98816 .15343 9.697 11.019)" stroke="#fff" stroke-width=".5" d="M0-.25h4.202"/><path transform="matrix(.16776 -.98583 .98927 .14611 7.724 21.819)" stroke="#fff" stroke-width=".5" d="M0-.25h9.557"/><path transform="matrix(-.70856 -.70565 .75387 -.65702 13.397 16.878)" stroke="#fff" stroke-width=".5" d="M0-.25h5.047"/><path transform="matrix(-.97504 -.22205 .2538 -.96726 12.657 14.236)" stroke="#fff" stroke-width=".5" d="M0-.25h11.383"/><path transform="matrix(.63913 -.7691 .81105 .58498 3.654 18.831)" stroke="#fff" stroke-width=".5" d="M0-.25h9.262"/><path transform="matrix(.62297 -.78225 .82261 .5686 5.75 20.785)" stroke="#fff" stroke-width=".5" d="M0-.25h9.106"/><path transform="matrix(.19496 -.98081 .98544 .17001 10.19 22.508)" stroke="#fff" stroke-width=".5" d="M0-.25h9.488"/><path transform="matrix(-.9397 .34198 -.38667 -.92222 9.574 11.134)" stroke="#fff" stroke-width=".5" d="M0-.25h8.399"/><path transform="matrix(-.97393 -.22684 .25917 -.96583 10.067 10.674)" stroke="#fff" stroke-width=".5" d="M0-.25h8.104"/><path transform="matrix(-.7187 -.69532 .74435 -.66778 9.45 12.972)" stroke="#fff" stroke-width=".5" d="M0-.25h8.923"/><path transform="matrix(-.71192 -.70226 .75076 -.66058 11.177 10.79)" stroke="#fff" stroke-width=".5" d="M0-.25h8.835"/><path transform="matrix(-.2932 -.95605 .96635 -.25722 12.41 22.278)" stroke="#fff" stroke-width=".5" d="M0-.25h9.253"/><path transform="matrix(-.2932 -.95605 .96635 -.25722 15 21.819)" stroke="#fff" stroke-width=".5" d="M0-.25h9.253"/><path transform="matrix(-.28976 -.9571 .96717 -.25414 9.327 12.168)" stroke="#fff" stroke-width=".5" d="M0-.25h9.363"/><path d="M9.235 12.849c-.324-2.992 1.948-2.431 2.533-1.745l.519 1.994c-.974 2.057-2.922.499-3.052-.25Z" fill="#fff" stroke="#fff" stroke-width=".5" stroke-linecap="round"/><path d="M10.93 14.466c.92 0 1.48-.225 1.48-1.177.123-.702-.375-2.585-1.295-2.585-.92 0-1.85.972-1.85 1.923 0 .952.746 1.839 1.665 1.839Z" fill="#fff"/><path transform="matrix(-.2932 -.95605 .96635 -.25722 11.794 11.134)" stroke="#fff" stroke-width=".5" d="M0-.25h9.253"/><path transform="matrix(-.94043 .34 -.38451 -.92312 10.807 13.776)" stroke="#fff" stroke-width=".5" d="M0-.25h8.786"/><path d="M8.402 2C5.32 2.804-.995 6.963 1.62 16.247c.89 3.16 5.894 8.984 12.948 5.859" stroke="#fff" stroke-width="2" stroke-linecap="square"/><path d="M31.349 16.96V18h-6.515v-.91l3.26-3.63c.402-.446.712-.824.93-1.134a3.54 3.54 0 0 0 .465-.84c.091-.251.137-.507.137-.766 0-.328-.068-.625-.205-.889a1.537 1.537 0 0 0-.588-.643c-.26-.159-.574-.239-.943-.239-.442 0-.812.087-1.108.26a1.61 1.61 0 0 0-.656.71 2.414 2.414 0 0 0-.219 1.054h-1.264c0-.56.123-1.074.369-1.538a2.72 2.72 0 0 1 1.093-1.108c.483-.278 1.078-.417 1.785-.417.629 0 1.166.112 1.613.335.447.219.788.529 1.025.93.242.396.363.861.363 1.394 0 .292-.05.588-.15.889a4.51 4.51 0 0 1-.404.889 6.897 6.897 0 0 1-.595.875c-.223.287-.462.57-.718.847l-2.666 2.892h4.99Zm7.601-4.73v1.518c0 .816-.073 1.504-.219 2.065-.145.56-.355 1.011-.629 1.353-.273.342-.603.59-.99.745-.384.15-.816.226-1.3.226-.382 0-.735-.048-1.06-.144a2.517 2.517 0 0 1-.874-.458 2.778 2.778 0 0 1-.656-.834 4.474 4.474 0 0 1-.417-1.244 8.965 8.965 0 0 1-.144-1.709V12.23c0-.815.073-1.499.219-2.05.15-.552.362-.994.636-1.326.273-.338.601-.58.984-.725.387-.146.82-.219 1.299-.219.387 0 .743.048 1.066.144a2.392 2.392 0 0 1 1.525 1.251c.182.332.32.74.417 1.223.095.483.143 1.05.143 1.702Zm-1.271 1.723V12.02c0-.447-.028-.839-.082-1.176a3.697 3.697 0 0 0-.226-.875 1.732 1.732 0 0 0-.383-.588c-.15-.15-.326-.26-.526-.328a1.89 1.89 0 0 0-.663-.11c-.301 0-.568.057-.8.171-.232.11-.428.285-.588.527-.155.241-.273.558-.355.95a7.089 7.089 0 0 0-.123 1.429v1.934c0 .447.025.84.075 1.183.054.341.134.638.24.888.104.246.232.45.382.609.15.16.323.278.52.355.2.073.421.11.663.11.31 0 .58-.06.813-.178.232-.119.426-.303.581-.554.16-.255.278-.58.355-.977.078-.401.117-.88.117-1.436Zm9.42 3.008V18h-6.515v-.91l3.26-3.63c.402-.446.712-.824.93-1.134a3.54 3.54 0 0 0 .465-.84c.091-.251.137-.507.137-.766 0-.328-.068-.625-.205-.889a1.537 1.537 0 0 0-.588-.643c-.26-.159-.574-.239-.943-.239-.442 0-.812.087-1.108.26a1.61 1.61 0 0 0-.656.71 2.414 2.414 0 0 0-.219 1.054h-1.264c0-.56.123-1.074.369-1.538a2.72 2.72 0 0 1 1.093-1.108c.484-.278 1.078-.417 1.785-.417.629 0 1.166.112 1.613.335.447.219.788.529 1.025.93.242.396.363.861.363 1.394 0 .292-.05.588-.15.889a4.51 4.51 0 0 1-.404.889 6.897 6.897 0 0 1-.595.875c-.223.287-.462.57-.718.847l-2.666 2.892h4.99Zm7.875 0V18h-6.515v-.91l3.26-3.63c.402-.446.712-.824.93-1.134a3.54 3.54 0 0 0 .465-.84c.091-.251.137-.507.137-.766 0-.328-.068-.625-.205-.889a1.537 1.537 0 0 0-.588-.643c-.26-.159-.574-.239-.943-.239-.442 0-.812.087-1.108.26a1.61 1.61 0 0 0-.656.71 2.414 2.414 0 0 0-.219 1.054h-1.264c0-.56.123-1.074.369-1.538a2.72 2.72 0 0 1 1.093-1.108c.484-.278 1.078-.417 1.785-.417.629 0 1.166.112 1.613.335.447.219.788.529 1.025.93.242.396.363.861.363 1.394 0 .292-.05.588-.15.889a4.51 4.51 0 0 1-.404.889 6.897 6.897 0 0 1-.595.875c-.223.287-.462.57-.718.847l-2.666 2.892h4.99Zm8.839-8.032L60.517 18H59.17l3.794-9.953h.868l-.02.882ZM66.573 18l-3.301-9.071-.021-.882h.868L67.928 18h-1.354Zm-.17-3.685v1.08h-5.592v-1.08h5.591Zm5.639-3.711v.97h-4v-.97h4Zm-2.646-1.798h1.265v7.362c0 .25.039.44.116.567a.556.556 0 0 0 .301.253c.123.041.255.062.397.062.104 0 .214-.01.328-.027.118-.023.207-.042.266-.055L72.077 18c-.1.032-.232.061-.396.089-.16.032-.353.048-.581.048a1.97 1.97 0 0 1-.855-.185 1.375 1.375 0 0 1-.622-.615c-.15-.292-.226-.684-.226-1.176V8.806Zm7.199 9.33a3.64 3.64 0 0 1-1.402-.259 3.179 3.179 0 0 1-1.073-.745 3.314 3.314 0 0 1-.683-1.135 4.162 4.162 0 0 1-.24-1.435v-.288c0-.601.09-1.137.267-1.606.178-.474.42-.875.724-1.203a3.103 3.103 0 0 1 1.04-.745 2.985 2.985 0 0 1 1.203-.253c.528 0 .984.09 1.367.273.387.182.704.438.95.766.246.323.428.706.547 1.148.118.438.178.916.178 1.436v.567H73.95v-1.032h4.259v-.096a3.153 3.153 0 0 0-.205-.957 1.72 1.72 0 0 0-.547-.765c-.25-.2-.592-.301-1.025-.301a1.722 1.722 0 0 0-1.415.718 2.685 2.685 0 0 0-.404.868 4.4 4.4 0 0 0-.143 1.182v.288c0 .35.048.68.143.99.1.306.244.575.43.807.192.233.422.415.691.547.274.132.584.199.93.199.447 0 .825-.092 1.135-.274a2.81 2.81 0 0 0 .813-.731l.766.608c-.16.242-.362.472-.609.69-.246.22-.549.397-.909.534-.355.136-.777.205-1.264.205ZM82.324 7.5V18h-1.271V7.5h1.271Zm3.404 3.104V18h-1.271v-7.396h1.272Zm-1.367-1.962c0-.205.062-.379.185-.52.127-.141.314-.212.56-.212.242 0 .427.07.554.212a.732.732 0 0 1 .198.52.715.715 0 0 1-.198.505c-.127.137-.312.206-.554.206-.246 0-.432-.069-.56-.206a.745.745 0 0 1-.185-.505Zm6.467 9.495a3.64 3.64 0 0 1-1.401-.26 3.178 3.178 0 0 1-1.074-.745 3.314 3.314 0 0 1-.683-1.135 4.162 4.162 0 0 1-.24-1.435v-.288c0-.601.09-1.137.267-1.606.178-.474.42-.875.725-1.203a3.104 3.104 0 0 1 1.039-.745 2.985 2.985 0 0 1 1.203-.253c.529 0 .984.09 1.367.273.388.182.704.438.95.766.247.323.429.706.547 1.148.119.438.178.916.178 1.436v.567h-5.523v-1.032h4.258v-.096a3.153 3.153 0 0 0-.205-.957 1.721 1.721 0 0 0-.547-.765c-.25-.2-.592-.301-1.025-.301a1.722 1.722 0 0 0-1.415.718 2.685 2.685 0 0 0-.403.868 4.4 4.4 0 0 0-.144 1.182v.288c0 .35.048.68.144.99.1.306.243.575.43.807.192.233.422.415.69.547.274.132.584.199.93.199.447 0 .825-.092 1.135-.274a2.81 2.81 0 0 0 .814-.731l.765.608c-.16.242-.362.472-.608.69a2.89 2.89 0 0 1-.91.534c-.355.136-.776.205-1.264.205Zm5.62-6.371V18h-1.265v-7.396h1.23l.034 1.162Zm2.31-1.204-.007 1.176a1.82 1.82 0 0 0-.3-.04 3.202 3.202 0 0 0-.315-.014c-.292 0-.55.045-.773.136a1.602 1.602 0 0 0-.567.383c-.155.164-.278.36-.37.588-.086.223-.143.47-.17.738l-.356.205c0-.446.044-.866.13-1.257a3.42 3.42 0 0 1 .417-1.04c.187-.305.424-.542.711-.71.292-.174.638-.26 1.04-.26.09 0 .195.011.314.034.118.018.2.039.246.062Zm8.046 5.927 2.932-8.442h1.429L107.48 18h-1.018l.342-1.51Zm-2.742-8.442 2.906 8.442.362 1.511h-1.018l-3.678-9.953h1.428Zm11.02 10.09c-.515 0-.982-.087-1.401-.26a3.18 3.18 0 0 1-1.074-.745 3.308 3.308 0 0 1-.683-1.135 4.15 4.15 0 0 1-.239-1.435v-.288c0-.601.088-1.137.266-1.606.178-.474.419-.875.725-1.203a3.094 3.094 0 0 1 1.039-.745 2.982 2.982 0 0 1 1.203-.253c.529 0 .984.09 1.367.273.388.182.704.438.95.766.246.323.429.706.547 1.148.119.438.178.916.178 1.436v.567h-5.523v-1.032h4.258v-.096a3.132 3.132 0 0 0-.205-.957 1.72 1.72 0 0 0-.547-.765c-.25-.2-.592-.301-1.025-.301a1.724 1.724 0 0 0-1.415.718 2.674 2.674 0 0 0-.403.868 4.388 4.388 0 0 0-.144 1.182v.288c0 .35.048.68.144.99.1.306.243.575.43.807.192.233.422.415.691.547.273.132.583.199.929.199.447 0 .825-.092 1.135-.274.31-.182.581-.426.814-.731l.765.608a3.522 3.522 0 0 1-.608.69 2.9 2.9 0 0 1-.909.534c-.356.136-.777.205-1.265.205Zm-.868-8.627 1.326-2.01h1.524l-1.832 2.01h-1.018Zm6.597-2.01V18h-1.272V7.5h1.272Zm1.695 6.884v-.157c0-.534.077-1.028.232-1.484.155-.46.379-.859.67-1.196a2.992 2.992 0 0 1 1.06-.793 3.285 3.285 0 0 1 1.394-.287 3.3 3.3 0 0 1 1.402.287c.419.187.774.451 1.066.793.296.337.522.736.677 1.196.155.456.232.95.232 1.484v.157c0 .533-.077 1.027-.232 1.483a3.555 3.555 0 0 1-.677 1.197 3.109 3.109 0 0 1-1.059.792 3.33 3.33 0 0 1-1.395.28c-.52 0-.987-.093-1.401-.28a3.168 3.168 0 0 1-1.067-.793 3.627 3.627 0 0 1-.67-1.196 4.579 4.579 0 0 1-.232-1.483Zm1.265-.157v.157c0 .369.043.718.129 1.046.087.323.217.61.39.861.178.25.399.449.663.595.264.141.572.212.923.212.346 0 .649-.071.909-.212.264-.146.483-.344.656-.595.174-.25.303-.538.39-.861.091-.328.137-.677.137-1.046v-.157c0-.365-.046-.71-.137-1.033a2.68 2.68 0 0 0-.396-.868 1.888 1.888 0 0 0-.657-.601 1.839 1.839 0 0 0-.916-.22c-.346 0-.651.074-.916.22a1.976 1.976 0 0 0-.656.601c-.173.25-.303.54-.39.868a4.005 4.005 0 0 0-.129 1.033Zm15.189 2.337V7.5h1.271V18h-1.162l-.109-1.436Zm-4.977-2.18v-.144c0-.565.069-1.078.205-1.538.142-.465.34-.864.595-1.196.26-.333.568-.588.923-.766.36-.182.761-.273 1.203-.273.465 0 .871.082 1.217.246.351.16.647.394.889.704.246.305.439.675.581 1.107.141.433.239.923.294 1.47v.629a6.424 6.424 0 0 1-.294 1.463 3.468 3.468 0 0 1-.581 1.107c-.242.306-.538.54-.889.704-.351.16-.761.24-1.23.24-.433 0-.83-.094-1.19-.28a2.813 2.813 0 0 1-.923-.787 3.852 3.852 0 0 1-.595-1.19 5.263 5.263 0 0 1-.205-1.496Zm1.272-.144v.144c0 .369.036.715.109 1.039.078.323.196.608.356.854.159.246.362.44.608.581.246.137.54.206.882.206.419 0 .763-.09 1.032-.267.274-.178.492-.413.656-.704a4.08 4.08 0 0 0 .383-.95v-1.648a3.595 3.595 0 0 0-.239-.724 2.225 2.225 0 0 0-.396-.63 1.72 1.72 0 0 0-.595-.444 1.928 1.928 0 0 0-.827-.164 1.75 1.75 0 0 0-.896.219 1.74 1.74 0 0 0-.608.588 2.72 2.72 0 0 0-.356.861 4.72 4.72 0 0 0-.109 1.04Zm11.471 2.051v-5.688h1.271V18h-1.21l-.061-1.709Zm.239-1.559.526-.013c0 .492-.052.948-.157 1.367-.1.415-.264.775-.492 1.08a2.331 2.331 0 0 1-.896.718c-.369.168-.818.253-1.346.253a3 3 0 0 1-.992-.157 1.978 1.978 0 0 1-.765-.486 2.204 2.204 0 0 1-.499-.854c-.114-.351-.171-.773-.171-1.265v-4.771h1.265v4.785c0 .332.036.608.109.827.077.214.18.385.307.512.133.124.278.21.438.26.164.05.333.076.506.076.538 0 .964-.103 1.278-.308.315-.21.54-.49.677-.841.141-.355.212-.75.212-1.183Zm9.837 1.757 2.932-8.442h1.429L157.479 18h-1.019l.342-1.51Zm-2.741-8.442 2.905 8.442.362 1.511h-1.018l-3.678-9.953h1.429Zm11.019 10.09c-.515 0-.982-.087-1.401-.26a3.18 3.18 0 0 1-1.074-.745 3.308 3.308 0 0 1-.683-1.135 4.15 4.15 0 0 1-.239-1.435v-.288c0-.601.088-1.137.266-1.606.178-.474.419-.875.725-1.203a3.104 3.104 0 0 1 1.039-.745 2.982 2.982 0 0 1 1.203-.253c.529 0 .984.09 1.367.273.388.182.704.438.95.766.246.323.429.706.547 1.148.119.438.178.916.178 1.436v.567h-5.523v-1.032h4.258v-.096a3.132 3.132 0 0 0-.205-.957 1.72 1.72 0 0 0-.547-.765c-.25-.2-.592-.301-1.025-.301a1.724 1.724 0 0 0-1.415.718 2.674 2.674 0 0 0-.403.868 4.388 4.388 0 0 0-.144 1.182v.288c0 .35.048.68.144.99.1.306.243.575.43.807.192.233.422.415.691.547.273.132.583.199.929.199.447 0 .825-.092 1.135-.274.31-.182.581-.426.814-.731l.765.608a3.522 3.522 0 0 1-.608.69 2.9 2.9 0 0 1-.909.534c-.356.136-.777.205-1.265.205Zm5.619-6.371V18h-1.264v-7.396h1.23l.034 1.162Zm2.311-1.204-.007 1.176a1.82 1.82 0 0 0-.301-.04 3.196 3.196 0 0 0-.314-.014 2.04 2.04 0 0 0-.773.136 1.604 1.604 0 0 0-.567.383 1.84 1.84 0 0 0-.369.588c-.087.223-.144.47-.171.738l-.356.205c0-.446.044-.866.13-1.257.091-.392.23-.739.417-1.04.187-.305.424-.542.711-.71.292-.174.638-.26 1.039-.26.091 0 .196.011.315.034.118.018.2.039.246.062Zm2.433 1.62V18h-1.264v-7.396h1.196l.068 1.579Zm-.3 1.84-.527-.021c.005-.506.08-.973.226-1.401.146-.433.351-.81.615-1.128a2.743 2.743 0 0 1 2.167-1.005c.365 0 .693.05.984.15.292.096.54.25.746.465.209.214.369.492.478.834.109.337.164.75.164 1.237V18h-1.271v-4.86c0-.388-.057-.698-.171-.93a1.054 1.054 0 0 0-.499-.513c-.219-.11-.488-.164-.807-.164a1.87 1.87 0 0 0-.861.198 2.054 2.054 0 0 0-.663.547 2.74 2.74 0 0 0-.431.8c-.1.296-.15.61-.15.944Zm9.843 4.115c-.515 0-.982-.087-1.401-.26a3.167 3.167 0 0 1-1.073-.745 3.31 3.31 0 0 1-.684-1.135 4.174 4.174 0 0 1-.239-1.435v-.288c0-.601.089-1.137.266-1.606.178-.474.42-.875.725-1.203a3.104 3.104 0 0 1 1.039-.745 2.989 2.989 0 0 1 1.203-.253c.529 0 .985.09 1.367.273.388.182.705.438.951.766.246.323.428.706.547 1.148.118.438.177.916.177 1.436v.567h-5.523v-1.032h4.259v-.096a3.192 3.192 0 0 0-.205-.957 1.727 1.727 0 0 0-.547-.765c-.251-.2-.593-.301-1.026-.301a1.724 1.724 0 0 0-1.415.718 2.695 2.695 0 0 0-.403.868 4.388 4.388 0 0 0-.144 1.182v.288c0 .35.048.68.144.99.1.306.244.575.431.807.191.233.421.415.69.547.273.132.583.199.93.199.446 0 .825-.092 1.134-.274.31-.182.582-.426.814-.731l.766.608c-.16.242-.363.472-.609.69a2.9 2.9 0 0 1-.909.534c-.355.136-.777.205-1.265.205Zm7.452-7.534v.971h-4v-.97h4Zm-2.646-1.797h1.265v7.362c0 .25.038.44.116.567a.554.554 0 0 0 .301.253c.123.041.255.062.396.062.105 0 .214-.01.328-.027.119-.023.208-.042.267-.055l.007 1.032a3.004 3.004 0 0 1-.397.089 3.01 3.01 0 0 1-.581.048c-.31 0-.595-.062-.854-.185a1.373 1.373 0 0 1-.622-.615c-.151-.292-.226-.684-.226-1.176V8.806Z" fill="#fff"/></svg>