<svg width="25" height="25" fill="none" xmlns="http://www.w3.org/2000/svg"><g clip-path="url(#entypo-social:instagram-with-circle__a)"><path d="M16.25 12.5a3.75 3.75 0 0 1-7.5 0c0-.214.023-.422.061-.625H7.5v4.996c0 .348.281.629.629.629h8.743a.629.629 0 0 0 .628-.629v-4.996h-1.311c.038.203.061.411.061.625ZM12.5 15a2.5 2.5 0 1 0-.001-5 2.5 2.5 0 0 0 .001 5Zm3-5.125h1.499a.376.376 0 0 0 .376-.375V8.001a.376.376 0 0 0-.376-.376H15.5a.376.376 0 0 0-.376.376V9.5c.001.206.17.375.376.375ZM12.5.5a12 12 0 1 0 0 24 12 12 0 0 0 0-24Zm6.25 16.861c0 .764-.625 1.389-1.389 1.389H7.64a1.393 1.393 0 0 1-1.389-1.389V7.64c0-.764.625-1.389 1.389-1.389h9.722c.764 0 1.389.625 1.389 1.389v9.722Z" fill="#F8F8F8"/></g><defs><clipPath id="entypo-social:instagram-with-circle__a"><path fill="#fff" d="M0 0h25v25H0z"/></clipPath></defs></svg>