<svg width="356" height="50" fill="none" xmlns="http://www.w3.org/2000/svg"><path d="m55.776 12.28 7.776 20.032c.299.768.63 1.301.992 1.6.384.277.725.427 1.024.448V35a34.738 34.738 0 0 0-2.272-.064 114.628 114.628 0 0 0-5.376 0c-.875 0-1.568.021-2.08.064v-.64c1.088-.043 1.77-.224 2.048-.544.299-.341.235-1.056-.192-2.144l-5.44-14.88.576-.832-4.864 12.672c-.47 1.173-.757 2.133-.864 2.88-.085.747-.032 1.323.16 1.728.213.405.544.693.992.864.47.15 1.024.235 1.664.256V35a33.35 33.35 0 0 0-2.016-.064c-.64-.021-1.29-.032-1.952-.032-.47 0-.917.01-1.344.032-.405 0-.768.021-1.088.064v-.64c.448-.085.907-.373 1.376-.864.47-.49.928-1.323 1.376-2.496l7.296-18.72c.341.021.704.032 1.088.032.405 0 .779-.01 1.12-.032Zm2.24 13.504v.64H48.48l.32-.64h9.216Zm113.961-13.44v.64c-.469.17-.97.544-1.504 1.12-.512.576-.992 1.472-1.44 2.688l-6.752 18.272a4.39 4.39 0 0 0-.544-.032h-1.12c-.192 0-.373.01-.544.032l-8.16-20.032c-.298-.768-.629-1.29-.992-1.568-.362-.299-.704-.459-1.024-.48v-.64c.64.021 1.387.043 2.24.064a110.614 110.614 0 0 0 5.376 0c.875-.021 1.579-.043 2.112-.064v.64c-.682.021-1.216.107-1.6.256-.384.128-.597.384-.64.768-.042.363.086.917.384 1.664l5.824 14.816-.672.8 4.416-11.904c.576-1.6.875-2.859.896-3.776.022-.917-.202-1.579-.672-1.984-.469-.405-1.141-.619-2.016-.64v-.64c.726.021 1.408.043 2.048.064.64.021 1.291.032 1.952.032.47 0 .907-.01 1.312-.032.427-.021.8-.043 1.12-.064Zm99.422 0v.64c-.469.17-.971.544-1.504 1.12-.512.576-.992 1.472-1.44 2.688l-6.752 18.272a4.401 4.401 0 0 0-.544-.032h-1.12c-.192 0-.373.01-.544.032l-8.16-20.032c-.299-.768-.629-1.29-.992-1.568-.363-.299-.704-.459-1.024-.48v-.64c.64.021 1.387.043 2.24.064a110.673 110.673 0 0 0 5.376 0c.875-.021 1.579-.043 2.112-.064v.64c-.683.021-1.216.107-1.6.256-.384.128-.597.384-.64.768-.043.363.085.917.384 1.664l5.824 14.816-.672.8 4.416-11.904c.576-1.6.875-2.859.896-3.776.021-.917-.203-1.579-.672-1.984-.469-.405-1.141-.619-2.016-.64v-.64c.725.021 1.408.043 2.048.064.64.021 1.291.032 1.952.032.469 0 .907-.01 1.312-.032.427-.021.8-.043 1.12-.064Z" fill="#4872B7"/><path d="M72.608 13.208v5.248h3.776v.64h-3.776v12.928c0 .64.117 1.099.352 1.376.234.256.586.384 1.056.384.384 0 .768-.139 1.152-.416.384-.299.725-.8 1.024-1.504l.544.288c-.342.96-.864 1.75-1.568 2.368-.683.619-1.622.928-2.816.928-.704 0-1.323-.096-1.856-.288a3.277 3.277 0 0 1-1.344-.8 3.42 3.42 0 0 1-.928-1.728c-.15-.704-.224-1.61-.224-2.72V19.096h-2.688v-.64H68v-4.224c.896 0 1.717-.075 2.464-.224a8.078 8.078 0 0 0 2.144-.8Zm12.885 4.8c1.877 0 3.35.555 4.416 1.664 1.066 1.11 1.6 2.923 1.6 5.44H80.98l-.064-.608h6.56a15.303 15.303 0 0 0-.192-2.88c-.15-.896-.384-1.61-.704-2.144-.32-.533-.747-.8-1.28-.8-.747 0-1.387.47-1.92 1.408-.512.939-.822 2.496-.928 4.672l.096.192c-.022.256-.043.523-.064.8v.864c0 1.472.202 2.667.608 3.584.426.917.96 1.59 1.6 2.016.64.405 1.29.608 1.952.608a5.22 5.22 0 0 0 1.376-.192c.49-.15.981-.405 1.472-.768.49-.384.95-.917 1.376-1.6l.576.192c-.256.81-.662 1.6-1.216 2.368a6.668 6.668 0 0 1-2.112 1.888c-.854.49-1.878.736-3.072.736-1.45 0-2.73-.31-3.84-.928-1.11-.619-1.984-1.557-2.624-2.816-.619-1.259-.928-2.859-.928-4.8 0-1.984.33-3.637.992-4.96.682-1.323 1.61-2.304 2.784-2.944 1.194-.661 2.55-.992 4.064-.992ZM99.89 9.944v22.08c0 .896.149 1.504.448 1.824.32.32.853.48 1.6.48V35a76.223 76.223 0 0 0-1.824-.064 46.856 46.856 0 0 0-2.464-.064c-.832 0-1.675.021-2.528.064a84.24 84.24 0 0 0-1.888.064v-.672c.746 0 1.27-.16 1.568-.48.32-.32.48-.928.48-1.824v-18.24c0-.96-.15-1.664-.448-2.112-.278-.47-.81-.704-1.6-.704v-.672c.682.064 1.344.096 1.984.096.874 0 1.706-.032 2.496-.096.79-.085 1.514-.203 2.176-.352Zm7.569.256c.896 0 1.6.224 2.112.672.534.427.8 1.024.8 1.792s-.266 1.376-.8 1.824c-.512.427-1.216.64-2.112.64-.896 0-1.61-.213-2.144-.64-.512-.448-.768-1.056-.768-1.824s.256-1.365.768-1.792c.534-.448 1.248-.672 2.144-.672Zm2.496 7.904v13.92c0 .896.15 1.504.448 1.824.32.32.854.48 1.6.48V35a68.089 68.089 0 0 0-1.792-.064 46.823 46.823 0 0 0-2.464-.064c-.832 0-1.674.021-2.528.064-.853.021-1.493.043-1.92.064v-.672c.747 0 1.27-.16 1.568-.48.32-.32.48-.928.48-1.824v-10.08c0-.96-.149-1.664-.448-2.112-.277-.47-.81-.704-1.6-.704v-.672a21.27 21.27 0 0 0 1.984.096c.896 0 1.728-.032 2.496-.096.79-.085 1.515-.203 2.176-.352Zm11.694-.096c1.877 0 3.349.555 4.416 1.664 1.067 1.11 1.6 2.923 1.6 5.44h-10.528l-.064-.608h6.56a15.353 15.353 0 0 0-.192-2.88c-.149-.896-.384-1.61-.704-2.144-.32-.533-.747-.8-1.28-.8-.747 0-1.387.47-1.92 1.408-.512.939-.821 2.496-.928 4.672l.096.192c-.021.256-.043.523-.064.8v.864c0 1.472.203 2.667.608 3.584.427.917.96 1.59 1.6 2.016.64.405 1.291.608 1.952.608.448 0 .907-.064 1.376-.192.491-.15.981-.405 1.472-.768.491-.384.949-.917 1.376-1.6l.576.192a8.32 8.32 0 0 1-1.216 2.368 6.675 6.675 0 0 1-2.112 1.888c-.853.49-1.877.736-3.072.736-1.451 0-2.731-.31-3.84-.928-1.109-.619-1.984-1.557-2.624-2.816-.619-1.259-.928-2.859-.928-4.8 0-1.984.331-3.637.992-4.96.683-1.323 1.611-2.304 2.784-2.944 1.195-.661 2.549-.992 4.064-.992Zm18.69 0c.682 0 1.237.15 1.664.448.426.277.736.64.928 1.088.213.448.32.917.32 1.408 0 .79-.235 1.44-.704 1.952-.448.49-1.046.736-1.792.736-.747 0-1.334-.181-1.76-.544-.406-.384-.608-.885-.608-1.504 0-.597.128-1.088.384-1.472a3.88 3.88 0 0 1 1.024-1.024 1.432 1.432 0 0 0-.896.032 2.53 2.53 0 0 0-1.152.512 3.447 3.447 0 0 0-.928.992c-.256.384-.459.81-.608 1.28-.15.448-.224.885-.224 1.312v8.48c0 1.024.245 1.717.736 2.08.512.363 1.269.544 2.272.544V35c-.491-.021-1.206-.043-2.144-.064a64.877 64.877 0 0 0-2.944-.064c-.854 0-1.718.021-2.592.064-.875.021-1.536.043-1.984.064v-.672c.746 0 1.269-.16 1.568-.48.32-.32.48-.928.48-1.824v-10.08c0-.96-.15-1.664-.448-2.112-.278-.47-.811-.704-1.6-.704v-.672c.682.064 1.344.096 1.984.096.896 0 1.728-.032 2.496-.096a19.392 19.392 0 0 0 2.176-.352v2.976a5.86 5.86 0 0 1 1.023-1.568 4.56 4.56 0 0 1 1.473-1.088 4.09 4.09 0 0 1 1.856-.416Zm40.341 0c1.878 0 3.35.555 4.416 1.664 1.067 1.11 1.6 2.923 1.6 5.44h-10.528l-.064-.608h6.56a15.187 15.187 0 0 0-.192-2.88c-.149-.896-.384-1.61-.704-2.144-.32-.533-.746-.8-1.28-.8-.746 0-1.386.47-1.92 1.408-.512.939-.821 2.496-.928 4.672l.096.192-.064.8v.864c0 1.472.203 2.667.608 3.584.427.917.96 1.59 1.6 2.016.64.405 1.291.608 1.952.608.448 0 .907-.064 1.376-.192a4.88 4.88 0 0 0 1.472-.768c.491-.384.95-.917 1.376-1.6l.576.192a8.32 8.32 0 0 1-1.216 2.368 6.653 6.653 0 0 1-2.112 1.888c-.853.49-1.877.736-3.072.736-1.45 0-2.73-.31-3.84-.928-1.109-.619-1.984-1.557-2.624-2.816-.618-1.259-.928-2.859-.928-4.8 0-1.984.331-3.637.992-4.96.683-1.323 1.611-2.304 2.784-2.944 1.195-.661 2.55-.992 4.064-.992Zm3.296-9.152c.363.277.555.661.576 1.152.022.49-.138.95-.48 1.376-.341.427-.757.81-1.248 1.152-.49.341-1.077.757-1.76 1.248-.661.49-1.461 1.173-2.4 2.048l-.352-.288c.64-1.152 1.11-2.112 1.408-2.88.299-.79.555-1.461.768-2.016a4.65 4.65 0 0 1 .864-1.44c.32-.427.736-.672 1.248-.736.534-.085.992.043 1.376.384Zm11.101 1.088v22.08c0 .896.15 1.504.448 1.824.32.32.854.48 1.6.48V35a75.826 75.826 0 0 0-1.824-.064 46.823 46.823 0 0 0-2.464-.064c-.832 0-1.674.021-2.528.064a84.46 84.46 0 0 0-1.888.064v-.672c.747 0 1.27-.16 1.568-.48.32-.32.48-.928.48-1.824v-18.24c0-.96-.149-1.664-.448-2.112-.277-.47-.81-.704-1.6-.704v-.672a21.27 21.27 0 0 0 1.984.096c.875 0 1.707-.032 2.496-.096.79-.085 1.515-.203 2.176-.352Zm11.353 8.064c1.558 0 2.923.288 4.096.864 1.174.576 2.091 1.504 2.752 2.784.662 1.28.992 2.976.992 5.088s-.33 3.808-.992 5.088c-.661 1.259-1.578 2.176-2.752 2.752-1.173.576-2.538.864-4.096.864-1.514 0-2.869-.288-4.064-.864-1.173-.576-2.101-1.493-2.784-2.752-.661-1.28-.992-2.976-.992-5.088s.331-3.808.992-5.088c.683-1.28 1.611-2.208 2.784-2.784 1.195-.576 2.55-.864 4.064-.864Zm0 .64c-.853 0-1.568.64-2.144 1.92-.576 1.259-.864 3.317-.864 6.176s.288 4.917.864 6.176c.576 1.259 1.291 1.888 2.144 1.888.875 0 1.59-.63 2.144-1.888.576-1.259.864-3.317.864-6.176s-.288-4.917-.864-6.176c-.554-1.28-1.269-1.92-2.144-1.92Zm24.795 3.824V33.24c0 .48.074.837.224 1.072.149.224.416.336.8.336v.336a10.308 10.308 0 0 0-.992-.048c-.448 0-.87.016-1.264.048-.384.032-.742.09-1.072.176V24.392c0-.48-.075-.832-.224-1.056-.139-.235-.406-.352-.8-.352v-.336c.341.032.672.048.992.048.437 0 .853-.016 1.248-.048a9.715 9.715 0 0 0 1.088-.176Zm-4.08 4.032c.469 0 .88.08 1.232.24.362.15.645.405.848.768l-.192.176a1.204 1.204 0 0 0-.56-.544 1.53 1.53 0 0 0-.72-.176c-.544 0-.976.32-1.296.96-.32.63-.475 1.605-.464 2.928 0 .907.058 1.632.176 2.176.128.533.304.917.528 1.152.234.235.501.352.8.352.362 0 .688-.144.976-.432.288-.288.442-.677.464-1.168l.08.56c-.16.565-.422.997-.784 1.296-.352.288-.816.432-1.392.432-.63 0-1.195-.155-1.696-.464-.491-.31-.875-.784-1.152-1.424-.278-.65-.416-1.488-.416-2.512 0-.97.154-1.77.464-2.4.309-.64.73-1.12 1.264-1.44a3.56 3.56 0 0 1 1.84-.48Zm13.738.048v6.704c0 .48.075.837.224 1.072.15.224.416.336.8.336V35c-.33-.032-.661-.048-.992-.048-.448 0-.864.016-1.248.048s-.746.09-1.088.176v-1.44c-.256.533-.613.917-1.072 1.152a3.315 3.315 0 0 1-1.504.336c-.448 0-.81-.059-1.088-.176a1.787 1.787 0 0 1-.656-.448c-.181-.203-.309-.47-.384-.8-.074-.33-.112-.757-.112-1.28v-4.048c0-.48-.074-.832-.224-1.056-.138-.235-.405-.352-.8-.352v-.336c.342.032.672.048.992.048.448 0 .864-.016 1.248-.048a9.64 9.64 0 0 0 1.088-.176v6.624c0 .267.022.501.064.704.054.203.15.363.288.48.139.107.342.16.608.16.288 0 .544-.08.768-.24.235-.16.422-.379.56-.656.15-.288.224-.608.224-.96v-4.192c0-.48-.074-.832-.224-1.056-.138-.235-.405-.352-.8-.352v-.336c.342.032.672.048.992.048.448 0 .864-.016 1.248-.048a9.64 9.64 0 0 0 1.088-.176Zm39.219-8.544c1.877 0 3.349.555 4.416 1.664 1.067 1.11 1.6 2.923 1.6 5.44H275.59l-.064-.608h6.56a15.353 15.353 0 0 0-.192-2.88c-.149-.896-.384-1.61-.704-2.144-.32-.533-.747-.8-1.28-.8-.747 0-1.387.47-1.92 1.408-.512.939-.821 2.496-.928 4.672l.096.192c-.021.256-.043.523-.064.8v.864c0 1.472.203 2.667.608 3.584.427.917.96 1.59 1.6 2.016.64.405 1.291.608 1.952.608.448 0 .907-.064 1.376-.192.491-.15.981-.405 1.472-.768.491-.384.949-.917 1.376-1.6l.576.192a8.32 8.32 0 0 1-1.216 2.368 6.675 6.675 0 0 1-2.112 1.888c-.853.49-1.877.736-3.072.736-1.451 0-2.731-.31-3.84-.928-1.109-.619-1.984-1.557-2.624-2.816-.619-1.259-.928-2.859-.928-4.8 0-1.984.331-3.637.992-4.96.683-1.323 1.611-2.304 2.784-2.944 1.195-.661 2.549-.992 4.064-.992Zm18.69 0c.682 0 1.237.15 1.664.448.426.277.736.64.928 1.088.213.448.32.917.32 1.408 0 .79-.235 1.44-.704 1.952-.448.49-1.046.736-1.792.736-.747 0-1.334-.181-1.76-.544-.406-.384-.608-.885-.608-1.504 0-.597.128-1.088.384-1.472a3.88 3.88 0 0 1 1.024-1.024 1.432 1.432 0 0 0-.896.032 2.53 2.53 0 0 0-1.152.512 3.447 3.447 0 0 0-.928.992c-.256.384-.459.81-.608 1.28-.15.448-.224.885-.224 1.312v8.48c0 1.024.245 1.717.736 2.08.512.363 1.269.544 2.272.544V35c-.491-.021-1.206-.043-2.144-.064a64.877 64.877 0 0 0-2.944-.064c-.854 0-1.718.021-2.592.064-.875.021-1.536.043-1.984.064v-.672c.746 0 1.269-.16 1.568-.48.32-.32.48-.928.48-1.824v-10.08c0-.96-.15-1.664-.448-2.112-.278-.47-.811-.704-1.6-.704v-.672c.682.064 1.344.096 1.984.096.896 0 1.728-.032 2.496-.096a19.392 19.392 0 0 0 2.176-.352v2.976a5.84 5.84 0 0 1 1.024-1.568c.426-.47.917-.832 1.472-1.088a4.09 4.09 0 0 1 1.856-.416Zm15.833 0c.896 0 1.621.117 2.176.352.576.213 1.024.512 1.344.896.341.405.587.928.736 1.568.171.64.256 1.504.256 2.592v8.608c0 .896.149 1.504.448 1.824.32.32.853.48 1.6.48V35a75.826 75.826 0 0 0-1.824-.064 45.645 45.645 0 0 0-4.8 0 76.51 76.51 0 0 0-1.76.064v-.672c.64 0 1.088-.16 1.344-.48.256-.32.384-.928.384-1.824v-9.952c0-.533-.053-.992-.16-1.376-.107-.405-.299-.715-.576-.928-.277-.235-.693-.352-1.248-.352-.576 0-1.109.16-1.6.48-.469.32-.853.768-1.152 1.344-.277.555-.416 1.184-.416 1.888v8.896c0 .896.128 1.504.384 1.824.277.32.725.48 1.344.48V35a68.345 68.345 0 0 0-1.696-.064 38.702 38.702 0 0 0-2.272-.064c-.811 0-1.643.021-2.496.064-.853.021-1.493.043-1.92.064v-.672c.747 0 1.269-.16 1.568-.48.32-.32.48-.928.48-1.824v-10.08c0-.96-.149-1.664-.448-2.112-.277-.47-.811-.704-1.6-.704v-.672a21.27 21.27 0 0 0 1.984.096c.896 0 1.728-.032 2.496-.096a19.355 19.355 0 0 0 2.176-.352v2.88c.533-1.088 1.259-1.856 2.176-2.304.917-.448 1.941-.672 3.072-.672Zm16.008 0c1.878 0 3.35.555 4.416 1.664 1.067 1.11 1.6 2.923 1.6 5.44h-10.528l-.064-.608h6.56a15.187 15.187 0 0 0-.192-2.88c-.149-.896-.384-1.61-.704-2.144-.32-.533-.746-.8-1.28-.8-.746 0-1.386.47-1.92 1.408-.512.939-.821 2.496-.928 4.672l.096.192-.064.8v.864c0 1.472.203 2.667.608 3.584.427.917.96 1.59 1.6 2.016.64.405 1.291.608 1.952.608.448 0 .907-.064 1.376-.192a4.88 4.88 0 0 0 1.472-.768c.491-.384.95-.917 1.376-1.6l.576.192a8.32 8.32 0 0 1-1.216 2.368 6.653 6.653 0 0 1-2.112 1.888c-.853.49-1.877.736-3.072.736-1.45 0-2.73-.31-3.84-.928-1.109-.619-1.984-1.557-2.624-2.816-.618-1.259-.928-2.859-.928-4.8 0-1.984.331-3.637.992-4.96.683-1.323 1.611-2.304 2.784-2.944 1.195-.661 2.55-.992 4.064-.992Zm14.365-4.8v5.248h3.776v.64h-3.776v12.928c0 .64.118 1.099.352 1.376.235.256.587.384 1.056.384.384 0 .768-.139 1.152-.416.384-.299.726-.8 1.024-1.504l.544.288c-.341.96-.864 1.75-1.568 2.368-.682.619-1.621.928-2.816.928-.704 0-1.322-.096-1.856-.288a3.282 3.282 0 0 1-1.344-.8 3.428 3.428 0 0 1-.928-1.728c-.149-.704-.224-1.61-.224-2.72V19.096h-2.688v-.64h2.688v-4.224c.896 0 1.718-.075 2.464-.224a8.073 8.073 0 0 0 2.144-.8Z" fill="#fff"/><path transform="matrix(.91913 -.39396 .50382 .8638 25.413 21.834)" stroke="#fff" stroke-width=".5" d="M0-.25h1.25"/><path transform="matrix(.65846 -.75262 .84115 .5408 23.402 22.08)" stroke="#fff" stroke-width=".5" d="M0-.25h3.925"/><path transform="matrix(.19084 -.98162 .98995 .14144 22.254 22.326)" stroke="#fff" stroke-width=".5" d="M0-.25h9.029"/><path transform="matrix(.18185 -.98333 .9909 .13467 17.659 45.469)" stroke="#fff" stroke-width=".5" d="M0-.25h20.53"/><path transform="matrix(-.73726 -.6756 .78013 -.62562 30.87 34.882)" stroke="#fff" stroke-width=".5" d="M0-.25h11.297"/><path transform="matrix(-.97874 -.2051 .27422 -.96167 29.146 29.22)" stroke="#fff" stroke-width=".5" d="M0-.25h26.409"/><path transform="matrix(.67024 -.74215 .8332 .55298 8.181 39.068)" stroke="#fff" stroke-width=".5" d="M0-.25h20.568"/><path transform="matrix(.65442 -.75613 .84379 .53668 13.064 43.253)" stroke="#fff" stroke-width=".5" d="M0-.25h20.187"/><path transform="matrix(.21115 -.97745 .98763 .15679 23.402 46.946)" stroke="#fff" stroke-width=".5" d="M0-.25h20.402"/><path transform="matrix(-.94825 .31754 -.41465 -.90998 21.967 22.573)" stroke="#fff" stroke-width=".5" d="M0-.25h19.383"/><path transform="matrix(-.9778 -.20956 .27997 -.96001 23.115 21.588)" stroke="#fff" stroke-width=".5" d="M0-.25h18.798"/><path transform="matrix(-.74691 -.66492 .77118 -.63662 21.68 26.512)" stroke="#fff" stroke-width=".5" d="M0-.25h19.994"/><path transform="matrix(-.74046 -.6721 .7772 -.62925 25.7 21.834)" stroke="#fff" stroke-width=".5" d="M0-.25h19.781"/><path transform="matrix(-.31619 -.9487 .97129 -.2379 28.572 46.454)" stroke="#fff" stroke-width=".5" d="M0-.25h19.982"/><path transform="matrix(-.31619 -.9487 .97129 -.2379 34.603 45.469)" stroke="#fff" stroke-width=".5" d="M0-.25h19.982"/><path transform="matrix(-.31254 -.9499 .972 -.23502 21.392 24.788)" stroke="#fff" stroke-width=".5" d="M0-.25h20.216"/><path d="M21.178 26.248c-.755-6.412 4.536-5.21 5.897-3.74l1.21 4.274c-2.268 4.408-6.804 1.069-7.107-.534Z" fill="#fff" stroke="#fff" stroke-linecap="round"/><path d="M25.126 29.712c2.14 0 3.446-.482 3.446-2.522.287-1.504-.874-5.539-3.015-5.539-2.142 0-4.308 2.083-4.308 4.122 0 2.04 1.735 3.94 3.877 3.94Z" fill="#fff"/><path transform="matrix(-.31619 -.9487 .97129 -.2379 27.136 22.573)" stroke="#fff" stroke-width=".5" d="M0-.25h19.982"/><path transform="matrix(-.94887 .31566 -.4124 -.911 24.838 28.235)" stroke="#fff" d="M0-.5h20.279"/><path d="M19.238 3C12.058 4.723-2.646 13.636 3.443 33.528c2.072 6.77 13.728 19.253 30.155 12.556" stroke="#4872B7" stroke-width="4" stroke-linecap="square"/></svg>