<svg width="24" height="24" fill="none" xmlns="http://www.w3.org/2000/svg"><path d="M6.75 10h4.5a.72.72 0 0 0 .525-.225A.72.72 0 0 0 12 9.25a.72.72 0 0 0-.225-.525.72.72 0 0 0-.525-.225h-4.5a.72.72 0 0 0-.525.225A.72.72 0 0 0 6 9.25c0 .2.075.375.225.525A.72.72 0 0 0 6.75 10Zm0-2.5h4.5a.72.72 0 0 0 .525-.225A.72.72 0 0 0 12 6.75a.72.72 0 0 0-.225-.525A.72.72 0 0 0 11.25 6h-4.5a.72.72 0 0 0-.525.225A.72.72 0 0 0 6 6.75c0 .2.075.375.225.525a.72.72 0 0 0 .525.225ZM17 11V5h1c.55 0 1.021.196 1.413.588.391.391.587.862.587 1.412h2a.97.97 0 0 1 .712.287c.192.192.288.43.288.713s-.096.52-.288.712A.965.965 0 0 1 22 9h-2c0 .55-.196 1.02-.587 1.412A1.927 1.927 0 0 1 18 11h-1Zm-5 4.5H6V13c-1.1 0-2.042-.392-2.825-1.175C2.392 11.042 2 10.1 2 9V7c0-1.1.392-2.042 1.175-2.825C3.958 3.392 4.9 3 6 3h8c.55 0 1.021.196 1.413.587.391.392.587.863.587 1.413v6c0 .55-.196 1.02-.587 1.412A1.927 1.927 0 0 1 14 13h-2v2.5ZM5.5 21c-.417 0-.77-.146-1.062-.438A1.444 1.444 0 0 1 4 19.5V18c0-.417.146-.77.438-1.062A1.444 1.444 0 0 1 5.5 16.5h7c.417 0 .77.146 1.062.438.292.291.438.645.438 1.062v1.5c0 .417-.146.77-.438 1.062A1.444 1.444 0 0 1 12.5 21h-7Z" fill="#000"/></svg>