<svg width="34" height="24" fill="none" xmlns="http://www.w3.org/2000/svg"><g clip-path="url(#fontisto:bicycle__a)"><path d="M27.627 22.074a4.935 4.935 0 0 1-4.926-4.925 4.923 4.923 0 0 1 2.378-4.208l.022-.012 1.626 4.543c.136.376.489.64.904.64a.958.958 0 0 0 .327-.06l-.007.002a.963.963 0 0 0 .578-1.233l.002.007-1.626-4.546c.215-.035.464-.057.717-.059h.003a4.935 4.935 0 0 1 4.926 4.925v.001a4.934 4.934 0 0 1-4.923 4.926h-.001v-.001Zm-10.88-6.74-3.124-6.263 8.186-.423-5.062 6.686Zm-3.124.853a6.85 6.85 0 0 0-2.639-4.487l-.017-.012.954-1.726 3.105 6.225h-1.403Zm-5.145 0 1.549-2.8a4.934 4.934 0 0 1 1.651 2.768l.005.032H8.478ZM6.85 22.074a4.935 4.935 0 0 1-4.926-4.925 4.935 4.935 0 0 1 4.925-4.926c.536 0 1.051.086 1.533.245l-.035-.01-2.337 4.231a.953.953 0 0 0 .016.956l-.002-.004c.17.285.476.472.826.473h4.828c-.47 2.274-2.456 3.959-4.835 3.96h.007Zm20.78-11.775h-.008c-.486 0-.96.051-1.418.147l.045-.008-3.134-8.758a.964.964 0 0 0-.645-.599l-.007-.002-3.84-1.048a.96.96 0 0 0-1.178.668l-.002.007a.96.96 0 0 0 .666 1.176l.007.002 3.36.916 1.39 3.873-10.174.525-.379-.758h1.11a.956.956 0 0 0 .959-.959V5.48a.96.96 0 0 0-.96-.96h-5.52a.96.96 0 0 0-.96.96v.001a.956.956 0 0 0 .959.959h2.258l.72 1.44-1.593 2.88a6.696 6.696 0 0 0-2.437-.456h-.001a6.856 6.856 0 0 0-6.85 6.845v.001A6.857 6.857 0 0 0 6.846 24a6.854 6.854 0 0 0 6.768-5.851l.004-.037h2.956a.96.96 0 0 0 .763-.377l.002-.002 6.433-8.499.666 1.862c-2.192 1.171-3.659 3.442-3.662 6.055v.001a6.856 6.856 0 0 0 6.848 6.849 6.856 6.856 0 0 0 6.848-6.848 6.856 6.856 0 0 0-6.848-6.847l.006-.007Z" fill="#000"/></g><defs><clipPath id="fontisto:bicycle__a"><path fill="#fff" d="M0 0h34v24H0z"/></clipPath></defs></svg>