<svg width="34" height="34" fill="none" xmlns="http://www.w3.org/2000/svg"><path d="M25.766 29.75a6.11 6.11 0 1 1 6.109-6.11 6.117 6.117 0 0 1-6.11 6.11Zm0-10.094a3.985 3.985 0 1 0 0 7.97 3.985 3.985 0 0 0 0-7.97ZM8.234 29.75a6.11 6.11 0 1 1 6.11-6.11 6.116 6.116 0 0 1-6.11 6.11Zm0-10.094a3.984 3.984 0 1 0 0 7.969 3.984 3.984 0 0 0 0-7.969ZM21.25 8.5a2.118 2.118 0 0 0 2.125-2.132 2.096 2.096 0 0 0-2.112-2.118 2.124 2.124 0 1 0-.013 4.25Z" fill="#000"/><path d="M24.408 12.75h-2.906a.266.266 0 0 1-.233-.138L19.16 8.749a2.059 2.059 0 0 0-3.28-.515l-4.638 4.675c-.39.398-.611.931-.618 1.488 0 1.155.837 1.567 1.229 1.8a211.539 211.539 0 0 1 3.956 2.33.266.266 0 0 1 .127.227v4.59c0 .572.44 1.062 1.012 1.09a1.062 1.062 0 0 0 1.113-1.059v-5.71a1.063 1.063 0 0 0-.442-.864l-2.457-1.767a.266.266 0 0 1-.038-.399l2.789-2.974a.265.265 0 0 1 .426.052l1.45 2.616a1.064 1.064 0 0 0 .929.546h3.718a1.062 1.062 0 0 0 1.063-1.114c-.028-.571-.52-1.011-1.092-1.011Z" fill="#000"/></svg>